<?xml version="1.0" encoding="UTF-8"?> <svg xmlns="http://www.w3.org/2000/svg" id="Layer_2" data-name="Layer 2" viewBox="0 0 1584.32 1475.88"> <defs> <style> .cls-1 { fill: #fcba62; } .cls-2 { fill: #5cc4bf; } .cls-3 { fill: #ef3b3d; } .cls-4 { fill: #faa826; } </style> </defs> <g id="Layer_1-2" data-name="Layer 1"> <g> <path class="cls-1" d="M555.98,539.92c4.55,0,4.55-7.06,0-7.06s-4.55,7.06,0,7.06h0Z"></path> <path class="cls-1" d="M1016.16,484.87c4.55,0,4.55-7.06,0-7.06s-4.55,7.06,0,7.06h0Z"></path> <path class="cls-1" d="M1016.16,578.03c4.55,0,4.55-7.06,0-7.06s-4.55,7.06,0,7.06h0Z"></path> <path class="cls-1" d="M1034.51,219.5c4.55,0,4.55-7.06,0-7.06s-4.55,7.06,0,7.06h0Z"></path> <path class="cls-1" d="M572.92,168.68c4.55,0,4.55-7.06,0-7.06s-4.55,7.06,0,7.06h0Z"></path> <path class="cls-1" d="M619.5,30.34c4.55,0,4.55-7.06,0-7.06s-4.55,7.06,0,7.06h0Z"></path> <path class="cls-1" d="M831.24,26.11c4.55,0,4.55-7.06,0-7.06s-4.55,7.06,0,7.06h0Z"></path> <path class="cls-1" d="M1038.75,33.16c4.55,0,4.55-7.06,0-7.06s-4.55,7.06,0,7.06h0Z"></path> <path class="cls-2" d="M531.98,263.26c4.55,0,4.55-7.06,0-7.06s-4.55,7.06,0,7.06h0Z"></path> <path class="cls-2" d="M599.74,527.21c4.55,0,4.55-7.06,0-7.06s-4.55,7.06,0,7.06h0Z"></path> <path class="cls-2" d="M546.1,637.32c4.55,0,4.55-7.06,0-7.06s-4.55,7.06,0,7.06h0Z"></path> <path class="cls-1" d="M562.81,685.04c4.55,0,4.55-7.06,0-7.06s-4.55,7.06,0,7.06h0Z"></path> <path class="cls-2" d="M606.57,672.34c4.55,0,4.55-7.06,0-7.06s-4.55,7.06,0,7.06h0Z"></path> <path class="cls-2" d="M552.92,782.44c4.55,0,4.55-7.06,0-7.06s-4.55,7.06,0,7.06h0Z"></path> <path class="cls-2" d="M1064.16,506.04c4.55,0,4.55-7.06,0-7.06s-4.55,7.06,0,7.06h0Z"></path> <path class="cls-2" d="M962.52,419.93c4.55,0,4.55-7.05,0-7.05s-4.55,7.05,0,7.05h0Z"></path> <path class="cls-2" d="M1048.63,347.95c4.55,0,4.55-7.06,0-7.06s-4.55,7.06,0,7.06h0Z"></path> <path class="cls-2" d="M1045.81,124.92c4.55,0,4.55-7.06,0-7.06s-4.55,7.06,0,7.06h0Z"></path> <path class="cls-2" d="M978.05,16.23c4.55,0,4.55-7.06,0-7.06s-4.55,7.06,0,7.06h0Z"></path> <path class="cls-2" d="M714.08,19.05c4.55,0,4.55-7.06,0-7.06s-4.55,7.06,0,7.06h0Z"></path> <path class="cls-2" d="M642.09,88.22c4.55,0,4.55-7.06,0-7.06s-4.55,7.06,0,7.06h0Z"></path> <path class="cls-2" d="M541.86,58.57c4.55,0,4.55-7.06,0-7.06s-4.55,7.06,0,7.06h0Z"></path> <path class="cls-2" d="M613.97,258.41c4.55,0,4.55-7.06,0-7.06s-4.55,7.06,0,7.06h0Z"></path> <path class="cls-1" d="M1523.21,367.83c4.55,0,4.55-7.06,0-7.06s-4.55,7.06,0,7.06h0Z"></path> <path class="cls-2" d="M1545.8,425.7c4.55,0,4.55-7.06,0-7.06s-4.55,7.06,0,7.06h0Z"></path> <path class="cls-4" d="M1551.98,551.65c-.89-2.68-1.73-5.31-1.85-8.16-.89,.51-1.77,1.02-2.66,1.52,2.68,1.2,6,1.61,8.27,3.56,1.15,.99,2.98,.37,3.01-1.25,.09-4.35,.81-8.62-.06-12.93-.86,.66-1.73,1.33-2.59,1.99,2.67,1.88,5,4.13,7.31,6.43,1.61,1.61,4.11-.89,2.5-2.5-2.52-2.52-5.1-4.93-8.03-6.98-1.38-.97-2.87,.62-2.59,1.99,.8,3.96,.02,8-.06,11.99,1-.42,2.01-.83,3.01-1.25-2.62-2.25-5.92-2.74-8.98-4.11-1.14-.51-2.72,.06-2.66,1.52,.14,3.17,.99,6.09,1.98,9.1,.71,2.15,4.12,1.23,3.4-.94h0Z"></path> <path class="cls-1" d="M346.46,405.08c4.55,0,4.55-7.06,0-7.06s-4.55,7.06,0,7.06h0Z"></path> <path class="cls-2" d="M305.52,499.66c4.55,0,4.55-7.06,0-7.06s-4.55,7.06,0,7.06h0Z"></path> <path class="cls-2" d="M415.63,324.62c4.55,0,4.55-7.06,0-7.06s-4.55,7.06,0,7.06h0Z"></path> <path class="cls-2" d="M315.4,294.97c4.55,0,4.55-7.06,0-7.06s-4.55,7.06,0,7.06h0Z"></path> <path class="cls-4" d="M421.81,450.57c-.89-2.68-1.73-5.31-1.85-8.16-.89,.51-1.77,1.02-2.66,1.52,2.68,1.2,6,1.61,8.27,3.56,1.15,.99,2.98,.37,3.01-1.25,.09-4.35,.81-8.62-.06-12.93-.86,.66-1.73,1.33-2.59,1.99,2.67,1.88,5,4.13,7.31,6.43,1.61,1.61,4.11-.89,2.5-2.5-2.52-2.52-5.1-4.93-8.03-6.98-1.38-.97-2.87,.62-2.59,1.99,.8,3.96,.02,8-.06,11.99,1-.42,2.01-.83,3.01-1.25-2.62-2.25-5.92-2.74-8.98-4.11-1.14-.51-2.72,.06-2.66,1.52,.14,3.17,.99,6.09,1.98,9.1,.71,2.15,4.12,1.23,3.4-.94h0Z"></path> <path class="cls-4" d="M498.99,355.48c1.82-1.9,3.43-4.25,5.93-5.3-.75-.57-1.49-1.13-2.23-1.7,.18,3.7,1.72,7.3,1.02,11.03-.27,1.44,1.18,2.87,2.59,1.99,3.06-1.88,6.53-2.91,9.58-4.79-.89-.51-1.77-1.02-2.66-1.52,.14,2.48,.67,4.72,.06,7.2-.54,2.21,2.86,3.15,3.4,.94,.68-2.79,.22-5.32,.06-8.14-.07-1.29-1.46-2.26-2.66-1.52-3.06,1.88-6.53,2.91-9.58,4.79,.86,.67,1.73,1.33,2.59,1.99,.78-4.17-.69-7.86-.9-11.97-.05-1.02-1.11-2.17-2.23-1.7-3.2,1.34-5.14,3.75-7.49,6.21-1.57,1.64,.92,4.14,2.5,2.5h0Z"></path> <path class="cls-2" d="M480.48,400.88c4.55,0,4.55-7.06,0-7.06s-4.55,7.06,0,7.06h0Z"></path> <path class="cls-2" d="M387.51,494.81c4.55,0,4.55-7.06,0-7.06s-4.55,7.06,0,7.06h0Z"></path> <path class="cls-3" d="M427.9,386.98c1.92,.96,3.83,1.92,5.75,2.88,1.72,.86,3.81,.47,4.83-1.26,.92-1.58,.45-3.97-1.27-4.83-1.92-.96-3.83-1.92-5.75-2.87-1.72-.86-3.81-.47-4.83,1.27-.92,1.58-.45,3.97,1.27,4.83h0Z"></path> <path class="cls-1" d="M365.67,680.18c4.55,0,4.55-7.06,0-7.06s-4.55,7.06,0,7.06h0Z"></path> <path class="cls-2" d="M324.73,774.76c4.55,0,4.55-7.06,0-7.06s-4.55,7.06,0,7.06h0Z"></path> <path class="cls-2" d="M434.84,599.72c4.55,0,4.55-7.06,0-7.06s-4.55,7.06,0,7.06h0Z"></path> <path class="cls-2" d="M334.61,570.08c4.55,0,4.55-7.06,0-7.06s-4.55,7.06,0,7.06h0Z"></path> <path class="cls-4" d="M441.02,725.67c-.89-2.68-1.73-5.31-1.85-8.16-.89,.51-1.77,1.02-2.66,1.52,2.68,1.2,6,1.61,8.27,3.56,1.15,.99,2.98,.37,3.01-1.25,.09-4.35,.81-8.62-.06-12.93-.86,.66-1.73,1.33-2.59,1.99,2.67,1.88,5,4.13,7.31,6.43,1.61,1.61,4.11-.89,2.5-2.5-2.52-2.52-5.1-4.93-8.03-6.98-1.38-.97-2.87,.62-2.59,1.99,.8,3.96,.02,8-.06,11.99,1-.42,2.01-.83,3.01-1.25-2.62-2.25-5.92-2.74-8.98-4.11-1.14-.51-2.72,.06-2.66,1.52,.14,3.17,.99,6.09,1.98,9.1,.71,2.15,4.12,1.23,3.4-.94h0Z"></path> <path class="cls-2" d="M499.69,675.99c4.55,0,4.55-7.06,0-7.06s-4.55,7.06,0,7.06h0Z"></path> <path class="cls-2" d="M406.72,769.92c4.55,0,4.55-7.06,0-7.06s-4.55,7.06,0,7.06h0Z"></path> <path class="cls-3" d="M447.11,662.08c1.92,.96,3.83,1.92,5.75,2.88,1.72,.86,3.81,.47,4.83-1.26,.92-1.58,.45-3.97-1.27-4.83-1.92-.96-3.83-1.92-5.75-2.87-1.72-.86-3.81-.47-4.83,1.27-.92,1.58-.45,3.97,1.27,4.83h0Z"></path> <path class="cls-3" d="M304.28,1472.57c1.92,.96,3.83,1.92,5.75,2.88,1.72,.86,3.81,.47,4.83-1.26,.92-1.58,.45-3.97-1.27-4.83-1.92-.96-3.83-1.92-5.75-2.87-1.72-.86-3.81-.47-4.83,1.27-.92,1.58-.45,3.97,1.27,4.83h0Z"></path> <path class="cls-1" d="M290.54,447.67c4.55,0,4.55-7.05,0-7.05s-4.55,7.05,0,7.05h0Z"></path> <path class="cls-1" d="M72.55,439.87c4.55,0,4.55-7.06,0-7.06s-4.55,7.06,0,7.06h0Z"></path> <path class="cls-2" d="M141.72,359.41c4.55,0,4.55-7.06,0-7.06s-4.55,7.06,0,7.06h0Z"></path> <path class="cls-4" d="M147.9,485.36c-.89-2.68-1.73-5.31-1.85-8.16-.89,.51-1.77,1.02-2.66,1.52,2.68,1.2,6,1.61,8.27,3.56,1.15,.99,2.98,.37,3.01-1.25,.09-4.35,.81-8.62-.06-12.93-.86,.66-1.73,1.33-2.59,1.99,2.67,1.88,5,4.13,7.31,6.43,1.61,1.61,4.11-.89,2.5-2.5-2.52-2.52-5.1-4.93-8.03-6.98-1.38-.97-2.87,.62-2.59,1.99,.8,3.96,.02,8-.06,11.99,1-.42,2.01-.83,3.01-1.25-2.62-2.25-5.92-2.74-8.98-4.11-1.14-.51-2.72,.06-2.66,1.52,.14,3.17,.99,6.09,1.98,9.1,.71,2.15,4.12,1.23,3.4-.94h0Z"></path> <path class="cls-2" d="M206.57,435.67c4.55,0,4.55-7.06,0-7.06s-4.55,7.06,0,7.06h0Z"></path> <path class="cls-2" d="M222.66,501.91c4.55,0,4.55-7.06,0-7.06s-4.55,7.06,0,7.06h0Z"></path> <path class="cls-3" d="M234.94,564.27c1.92,.96,3.83,1.92,5.75,2.88,1.72,.86,3.81,.47,4.83-1.26,.92-1.58,.45-3.97-1.27-4.83-1.92-.96-3.83-1.92-5.75-2.87-1.72-.86-3.81-.47-4.83,1.27-.92,1.58-.45,3.97,1.27,4.83h0Z"></path> <path class="cls-1" d="M219.13,326.9c3.46,2.96,8.04-2.41,4.58-5.36s-8.04,2.41-4.58,5.36h0Z"></path> <path class="cls-1" d="M58.43,179.4c3.46,2.96,8.05-2.41,4.58-5.37s-8.05,2.41-4.58,5.37h0Z"></path> <path class="cls-4" d="M86.19,262.92c1.07-2.62,2.13-5.16,3.89-7.41-1-.19-2.01-.38-3.01-.57,1.25,2.65,3.52,5.13,3.98,8.08,.23,1.5,2.03,2.21,3.1,1.01,2.89-3.25,6.21-6.03,8.35-9.87-1.09-.06-2.18-.11-3.27-.17,.81,3.16,1.12,6.39,1.38,9.64,.18,2.27,3.7,1.99,3.52-.28-.28-3.56-.68-7.06-1.57-10.52-.42-1.63-2.58-1.39-3.27-.17-1.96,3.53-5.18,6.09-7.83,9.08,1.03,.33,2.07,.67,3.1,1.01-.53-3.41-2.73-5.93-4.16-8.96-.53-1.13-2.11-1.72-3.01-.57-1.95,2.51-3.21,5.27-4.4,8.2-.85,2.1,2.34,3.61,3.2,1.5h0Z"></path> <path class="cls-4" d="M206.63,240.74c2.62-.27,5.37-1.01,7.95-.17-.2-.92-.4-1.83-.59-2.75-2.27,2.93-3.44,6.67-6.39,9.05-1.14,.92-.97,2.94,.68,3.2,3.55,.55,6.85,2.03,10.4,2.58-.34-.96-.69-1.92-1.03-2.88-1.5,1.98-2.55,4.02-4.63,5.52-1.85,1.33,.13,4.25,1.98,2.93,2.34-1.68,3.62-3.9,5.33-6.15,.78-1.03,.36-2.67-1.03-2.88-3.55-.55-6.85-2.03-10.4-2.58,.22,1.07,.45,2.13,.68,3.2,3.3-2.66,4.58-6.43,7.09-9.69,.62-.81,.56-2.37-.59-2.74-3.31-1.06-6.34-.49-9.72-.14-2.26,.23-1.99,3.75,.28,3.52h0Z"></path> <path class="cls-3" d="M132.12,218.53c.84,1.97,1.67,3.95,2.51,5.92,.75,1.77,2.59,2.83,4.49,2.17,1.73-.6,2.92-2.72,2.17-4.49-.84-1.97-1.67-3.95-2.51-5.92-.75-1.77-2.59-2.83-4.49-2.17-1.73,.6-2.92,2.72-2.17,4.49h0Z"></path> <path class="cls-1" d="M341.31,94.26c1.63,4.25,8.22,1.72,6.59-2.53s-8.22-1.72-6.59,2.53h0Z"></path> <path class="cls-2" d="M238.34,89.94c1.63,4.25,8.22,1.72,6.59-2.53s-8.22-1.72-6.59,2.53h0Z"></path> <path class="cls-2" d="M441.21,129.99c1.63,4.25,8.22,1.72,6.59-2.53s-8.22-1.72-6.59,2.53h0Z"></path> <path class="cls-2" d="M432.97,25.8c1.63,4.25,8.22,1.72,6.59-2.53s-8.22-1.72-6.59,2.53h0Z"></path> <path class="cls-2" d="M393.26,217.87c1.63,4.25,8.22,1.72,6.59-2.53s-8.22-1.72-6.59,2.53h0Z"></path> <path class="cls-2" d="M272.25,164.74c1.63,4.25,8.22,1.72,6.59-2.53s-8.22-1.72-6.59,2.53h0Z"></path> <path class="cls-3" d="M387.39,163.81c-.21,2.13-.42,4.27-.62,6.4-.19,1.92,.92,3.73,2.91,4.05,1.81,.3,3.87-1,4.05-2.91,.21-2.13,.42-4.26,.62-6.4,.19-1.92-.92-3.73-2.91-4.06-1.8-.29-3.87,1-4.05,2.91h0Z"></path> <path class="cls-4" d="M40,53.27c2.19-1.79,4.34-3.51,6.95-4.65-.79-.64-1.58-1.29-2.37-1.93-.16,2.93,.64,6.18-.36,9-.51,1.43,.73,2.91,2.24,2.37,4.09-1.48,8.33-2.33,12.05-4.69-.93-.57-1.86-1.14-2.79-1.71-.79,3.17-2.06,6.15-3.39,9.13-.92,2.08,2.3,3.52,3.22,1.43,1.45-3.26,2.78-6.53,3.64-10,.41-1.63-1.6-2.46-2.79-1.71-3.41,2.17-7.46,2.88-11.22,4.24,.75,.79,1.5,1.58,2.25,2.37,1.16-3.25,.43-6.51,.62-9.86,.07-1.24-1.03-2.52-2.37-1.93-2.91,1.27-5.33,3.11-7.78,5.11-1.75,1.44,.33,4.29,2.1,2.84h0Z"></path> <path class="cls-4" d="M156.44,91.24c2.43,1.01,5.2,1.68,7.07,3.64,.26-.9,.52-1.8,.79-2.7-3.39,1.5-6.2,4.22-9.93,4.91-1.44,.26-2.25,2.12-.93,3.13,2.85,2.18,5.05,5.05,7.91,7.23,.16-1.01,.31-2.02,.47-3.03-2.26,1.02-4.16,2.32-6.7,2.64-2.26,.29-1.91,3.8,.34,3.51,2.85-.36,5.05-1.7,7.62-2.86,1.17-.53,1.59-2.17,.47-3.02-2.85-2.18-5.05-5.05-7.91-7.23-.31,1.04-.62,2.09-.93,3.13,4.17-.77,7.09-3.47,10.85-5.13,.94-.41,1.62-1.82,.79-2.69-2.4-2.51-5.34-3.46-8.48-4.77-2.1-.88-3.54,2.34-1.43,3.22h0Z"></path> <path class="cls-2" d="M107.42,90.24c1.63,4.25,8.22,1.72,6.59-2.53s-8.22-1.72-6.59,2.53h0Z"></path> <path class="cls-3" d="M101.55,36.17c-.21,2.13-.42,4.27-.62,6.4-.19,1.92,.92,3.73,2.91,4.05,1.81,.3,3.87-1,4.05-2.91,.21-2.13,.42-4.26,.62-6.4,.19-1.92-.92-3.73-2.91-4.06-1.8-.29-3.87,1-4.05,2.91h0Z"></path> <path class="cls-1" d="M1430.97,169.49c4.55,0,4.55-7.06,0-7.06s-4.55,7.06,0,7.06h0Z"></path> <path class="cls-2" d="M1525.55,158.2c4.55,0,4.55-7.06,0-7.06s-4.55,7.06,0,7.06h0Z"></path> <path class="cls-2" d="M1453.56,227.37c4.55,0,4.55-7.06,0-7.06s-4.55,7.06,0,7.06h0Z"></path> <path class="cls-4" d="M1459.74,353.32c-.89-2.68-1.73-5.31-1.85-8.16-.89,.51-1.77,1.02-2.66,1.52,2.68,1.2,6,1.61,8.27,3.56,1.15,.99,2.98,.37,3.01-1.25,.09-4.35,.81-8.62-.06-12.93-.86,.66-1.73,1.33-2.59,1.99,2.67,1.88,5,4.13,7.31,6.43,1.61,1.61,4.11-.89,2.5-2.5-2.52-2.52-5.1-4.93-8.03-6.98-1.38-.97-2.87,.62-2.59,1.99,.8,3.96,.02,8-.06,11.99,1-.42,2.01-.83,3.01-1.25-2.62-2.25-5.92-2.74-8.98-4.11-1.14-.51-2.72,.06-2.66,1.52,.14,3.17,.99,6.09,1.98,9.1,.71,2.15,4.12,1.23,3.4-.94h0Z"></path> <path class="cls-4" d="M1536.92,258.23c1.82-1.9,3.43-4.25,5.93-5.3-.75-.57-1.49-1.13-2.23-1.7,.18,3.7,1.72,7.3,1.02,11.03-.27,1.44,1.18,2.87,2.59,1.99,3.06-1.88,6.53-2.91,9.58-4.79-.89-.51-1.77-1.02-2.66-1.52,.14,2.48,.67,4.72,.06,7.2-.54,2.21,2.86,3.15,3.4,.94,.68-2.79,.22-5.32,.06-8.14-.07-1.29-1.46-2.26-2.66-1.52-3.06,1.88-6.53,2.91-9.58,4.79,.86,.67,1.73,1.33,2.59,1.99,.78-4.17-.69-7.86-.9-11.97-.05-1.02-1.11-2.17-2.23-1.7-3.2,1.34-5.14,3.75-7.49,6.21-1.57,1.64,.92,4.14,2.5,2.5h0Z"></path> <path class="cls-2" d="M1518.42,303.63c4.55,0,4.55-7.06,0-7.06s-4.55,7.06,0,7.06h0Z"></path> <path class="cls-2" d="M1425.44,397.56c4.55,0,4.55-7.06,0-7.06s-4.55,7.06,0,7.06h0Z"></path> <path class="cls-3" d="M1465.84,501.07c1.92,.96,3.83,1.92,5.75,2.88,1.72,.86,3.81,.47,4.83-1.26,.92-1.58,.45-3.97-1.27-4.83-1.92-.96-3.83-1.92-5.75-2.87-1.72-.86-3.81-.47-4.83,1.27-.92,1.58-.45,3.97,1.27,4.83h0Z"></path> <path class="cls-4" d="M1224.27,712.27c-1.54-2.4-3.38-5.25-2.7-8.23-.86,.35-1.73,.7-2.59,1.06,3.57,2.07,7.96,1.78,11.5,3.83,1.66,.97,3.08-.89,2.42-2.41-1.6-3.71-.88-7.93-2.88-11.5-.35,.86-.7,1.73-1.06,2.59,2.54-.66,4.24,.4,6.31,1.74,1.92,1.24,3.68-1.81,1.78-3.05-2.95-1.91-5.53-3.01-9.03-2.09-1.12,.29-1.6,1.61-1.05,2.59,1.91,3.43,1.3,7.85,2.88,11.5,.81-.8,1.61-1.61,2.41-2.41-3.57-2.07-7.97-1.78-11.5-3.83-.96-.56-2.34-.07-2.59,1.05-.92,4,.93,7.65,3.05,10.94,1.23,1.91,4.28,.14,3.05-1.78h0Z"></path> <path class="cls-2" d="M1227.53,767.48c4.55,0,4.55-7.06,0-7.06s-4.55,7.06,0,7.06h0Z"></path> <path class="cls-3" d="M1549.45,1069.02c3.39,2.55,6.79,5.09,9.83,8.07,3.25,3.19,8.24-1.8,4.99-4.99-3.46-3.4-7.39-6.28-11.26-9.18-1.54-1.16-3.94-.25-4.83,1.27-1.06,1.8-.27,3.68,1.27,4.83h0Z"></path> <path class="cls-3" d="M71.69,344.94c2.11-2.06,4.6-3.69,6.71-5.75,3.26-3.18-1.73-8.17-4.99-4.99-2.11,2.06-4.6,3.69-6.71,5.75-3.26,3.18,1.73,8.17,4.99,4.99h0Z"></path> <path class="cls-1" d="M137.44,1024.58c-4.55,0-4.55,7.06,0,7.06s4.55-7.06,0-7.06h0Z"></path> <path class="cls-2" d="M178.38,930.01c-4.55,0-4.55,7.06,0,7.06s4.55-7.06,0-7.06h0Z"></path> <path class="cls-2" d="M68.27,1105.04c-4.55,0-4.55,7.06,0,7.06s4.55-7.06,0-7.06h0Z"></path> <path class="cls-2" d="M168.5,1134.69c-4.55,0-4.55,7.06,0,7.06s4.55-7.06,0-7.06h0Z"></path> <path class="cls-4" d="M62.09,979.1c.89,2.68,1.73,5.31,1.85,8.16,.89-.51,1.77-1.02,2.66-1.52-2.68-1.2-6-1.61-8.27-3.56-1.15-.99-2.98-.37-3.01,1.25-.09,4.35-.81,8.62,.06,12.93,.86-.66,1.73-1.33,2.59-1.99-2.67-1.88-5-4.13-7.31-6.43-1.61-1.61-4.11,.89-2.5,2.5,2.52,2.52,5.1,4.93,8.03,6.98,1.38,.97,2.87-.62,2.59-1.99-.8-3.96-.02-8,.06-11.99-1,.42-2.01,.83-3.01,1.25,2.62,2.25,5.92,2.74,8.98,4.11,1.14,.51,2.72-.06,2.66-1.52-.14-3.17-.99-6.09-1.98-9.1-.71-2.15-4.12-1.23-3.4,.94h0Z"></path> <path class="cls-2" d="M3.41,1028.78c-4.55,0-4.55,7.06,0,7.06s4.55-7.06,0-7.06h0Z"></path> <path class="cls-2" d="M96.39,934.85c-4.55,0-4.55,7.06,0,7.06s4.55-7.06,0-7.06h0Z"></path> <path class="cls-3" d="M55.99,1042.68c-1.92-.96-3.83-1.92-5.75-2.88-1.72-.86-3.81-.47-4.83,1.26-.92,1.58-.45,3.97,1.27,4.83,1.92,.96,3.83,1.92,5.75,2.87,1.72,.86,3.81,.47,4.83-1.27,.92-1.58,.45-3.97-1.27-4.83h0Z"></path> <path class="cls-1" d="M118.23,749.48c-4.55,0-4.55,7.06,0,7.06s4.55-7.06,0-7.06h0Z"></path> <path class="cls-2" d="M159.17,654.9c-4.55,0-4.55,7.06,0,7.06s4.55-7.06,0-7.06h0Z"></path> <path class="cls-2" d="M49.06,829.94c-4.55,0-4.55,7.06,0,7.06s4.55-7.06,0-7.06h0Z"></path> <path class="cls-2" d="M149.29,859.59c-4.55,0-4.55,7.06,0,7.06s4.55-7.06,0-7.06h0Z"></path> <path class="cls-4" d="M42.88,703.99c.89,2.68,1.73,5.31,1.85,8.16,.89-.51,1.77-1.02,2.66-1.52-2.68-1.2-6-1.61-8.27-3.56-1.15-.99-2.98-.37-3.01,1.25-.09,4.35-.81,8.62,.06,12.93,.86-.66,1.73-1.33,2.59-1.99-2.67-1.88-5-4.13-7.31-6.43-1.61-1.61-4.11,.89-2.5,2.5,2.52,2.52,5.1,4.93,8.03,6.98,1.38,.97,2.87-.62,2.59-1.99-.8-3.96-.02-8,.06-11.99-1,.42-2.01,.83-3.01,1.25,2.62,2.25,5.92,2.74,8.98,4.11,1.14,.51,2.72-.06,2.66-1.52-.14-3.17-.99-6.09-1.98-9.1-.71-2.15-4.12-1.23-3.4,.94h0Z"></path> <path class="cls-2" d="M77.18,659.75c-4.55,0-4.55,7.06,0,7.06s4.55-7.06,0-7.06h0Z"></path> <path class="cls-3" d="M36.78,767.58c-1.92-.96-3.83-1.92-5.75-2.88-1.72-.86-3.81-.47-4.83,1.26-.92,1.58-.45,3.97,1.27,4.83,1.92,.96,3.83,1.92,5.75,2.87,1.72,.86,3.81,.47,4.83-1.27,.92-1.58,.45-3.97-1.27-4.83h0Z"></path> <path class="cls-1" d="M193.36,982c-4.55,0-4.55,7.05,0,7.05s4.55-7.05,0-7.05h0Z"></path> <path class="cls-1" d="M411.35,989.8c-4.55,0-4.55,7.06,0,7.06s4.55-7.06,0-7.06h0Z"></path> <path class="cls-2" d="M342.18,1070.26c-4.55,0-4.55,7.06,0,7.06s4.55-7.06,0-7.06h0Z"></path> <path class="cls-4" d="M336,944.31c.89,2.68,1.73,5.31,1.85,8.16,.89-.51,1.77-1.02,2.66-1.52-2.68-1.2-6-1.61-8.27-3.56-1.15-.99-2.98-.37-3.01,1.25-.09,4.35-.81,8.62,.06,12.93,.86-.66,1.73-1.33,2.59-1.99-2.67-1.88-5-4.13-7.31-6.43-1.61-1.61-4.11,.89-2.5,2.5,2.52,2.52,5.1,4.93,8.03,6.98,1.38,.97,2.87-.62,2.59-1.99-.8-3.96-.02-8,.06-11.99-1,.42-2.01,.83-3.01,1.25,2.62,2.25,5.92,2.74,8.98,4.11,1.14,.51,2.72-.06,2.66-1.52-.14-3.17-.99-6.09-1.98-9.1-.71-2.15-4.12-1.23-3.4,.94h0Z"></path> <path class="cls-2" d="M277.32,993.99c-4.55,0-4.55,7.06,0,7.06s4.55-7.06,0-7.06h0Z"></path> <path class="cls-2" d="M261.23,927.76c-4.55,0-4.55,7.06,0,7.06s4.55-7.06,0-7.06h0Z"></path> <path class="cls-3" d="M248.96,865.39c-1.92-.96-3.83-1.92-5.75-2.88-1.72-.86-3.81-.47-4.83,1.26-.92,1.58-.45,3.97,1.27,4.83,1.92,.96,3.83,1.92,5.75,2.87,1.72,.86,3.81,.47,4.83-1.27,.92-1.58,.45-3.97-1.27-4.83h0Z"></path> <path class="cls-1" d="M264.77,1102.76c-3.46-2.96-8.04,2.41-4.58,5.36s8.04-2.41,4.58-5.36h0Z"></path> <path class="cls-1" d="M425.47,1250.27c-3.46-2.96-8.05,2.41-4.58,5.37,3.46,2.96,8.05-2.41,4.58-5.37h0Z"></path> <path class="cls-4" d="M397.71,1166.74c-1.07,2.62-2.13,5.16-3.89,7.41,1,.19,2.01,.38,3.01,.57-1.25-2.65-3.52-5.13-3.98-8.08-.23-1.5-2.03-2.21-3.1-1.01-2.89,3.25-6.21,6.03-8.35,9.87,1.09,.06,2.18,.11,3.27,.17-.81-3.16-1.12-6.39-1.38-9.64-.18-2.27-3.7-1.99-3.52,.28,.28,3.56,.68,7.06,1.57,10.52,.42,1.63,2.58,1.39,3.27,.17,1.96-3.53,5.18-6.09,7.83-9.08-1.03-.33-2.07-.67-3.1-1.01,.53,3.41,2.73,5.93,4.16,8.96,.53,1.13,2.11,1.72,3.01,.57,1.95-2.51,3.21-5.27,4.4-8.2,.85-2.1-2.34-3.61-3.2-1.5h0Z"></path> <path class="cls-4" d="M277.27,1188.92c-2.62,.27-5.37,1.01-7.95,.17,.2,.92,.4,1.83,.59,2.75,2.27-2.93,3.44-6.67,6.39-9.05,1.14-.92,.97-2.94-.68-3.2-3.55-.55-6.85-2.03-10.4-2.58,.34,.96,.69,1.92,1.03,2.88,1.5-1.98,2.55-4.02,4.63-5.52,1.85-1.33-.13-4.25-1.98-2.93-2.34,1.68-3.62,3.9-5.33,6.15-.78,1.03-.36,2.67,1.03,2.88,3.55,.55,6.85,2.03,10.4,2.58-.22-1.07-.45-2.13-.68-3.2-3.3,2.66-4.58,6.43-7.09,9.69-.62,.81-.56,2.37,.59,2.74,3.31,1.06,6.34,.49,9.72,.14,2.26-.23,1.99-3.75-.28-3.52h0Z"></path> <path class="cls-3" d="M351.78,1211.13c-.84-1.97-1.67-3.95-2.51-5.92-.75-1.77-2.59-2.83-4.49-2.17-1.73,.6-2.92,2.72-2.17,4.49,.84,1.97,1.67,3.95,2.51,5.92,.75,1.77,2.59,2.83,4.49,2.17,1.73-.6,2.92-2.72,2.17-4.49h0Z"></path> <path class="cls-1" d="M142.59,1335.41c-1.63-4.25-8.22-1.72-6.59,2.53,1.63,4.25,8.22,1.72,6.59-2.53h0Z"></path> <path class="cls-2" d="M245.56,1339.73c-1.63-4.25-8.22-1.72-6.59,2.53s8.22,1.72,6.59-2.53h0Z"></path> <path class="cls-2" d="M42.68,1299.67c-1.63-4.25-8.22-1.72-6.59,2.53,1.63,4.25,8.22,1.72,6.59-2.53h0Z"></path> <path class="cls-2" d="M50.93,1403.86c-1.63-4.25-8.22-1.72-6.59,2.53s8.22,1.72,6.59-2.53h0Z"></path> <path class="cls-2" d="M90.64,1211.79c-1.63-4.25-8.22-1.72-6.59,2.53,1.63,4.25,8.22,1.72,6.59-2.53h0Z"></path> <path class="cls-2" d="M211.65,1264.92c-1.63-4.25-8.22-1.72-6.59,2.53s8.22,1.72,6.59-2.53h0Z"></path> <path class="cls-3" d="M96.5,1265.86c.21-2.13,.42-4.27,.62-6.4,.19-1.92-.92-3.73-2.91-4.05-1.81-.3-3.87,1-4.05,2.91-.21,2.13-.42,4.26-.62,6.4-.19,1.92,.92,3.73,2.91,4.06,1.8,.29,3.87-1,4.05-2.91h0Z"></path> <path class="cls-4" d="M230.91,737.41c-2.19,1.79-4.34,3.51-6.95,4.65,.79,.64,1.58,1.29,2.37,1.93,.16-2.93-.64-6.18,.36-9,.51-1.43-.73-2.91-2.24-2.37-4.09,1.48-8.33,2.33-12.05,4.69,.93,.57,1.86,1.14,2.79,1.71,.79-3.17,2.06-6.15,3.39-9.13,.92-2.08-2.3-3.52-3.22-1.43-1.45,3.26-2.78,6.53-3.64,10-.41,1.63,1.6,2.46,2.79,1.71,3.41-2.17,7.46-2.88,11.22-4.24-.75-.79-1.5-1.58-2.25-2.37-1.16,3.25-.43,6.51-.62,9.86-.07,1.24,1.03,2.52,2.37,1.93,2.91-1.27,5.33-3.11,7.78-5.11,1.75-1.44-.33-4.29-2.1-2.84h0Z"></path> <path class="cls-4" d="M327.46,1338.42c-2.43-1.01-5.2-1.68-7.07-3.64-.26,.9-.52,1.8-.79,2.7,3.39-1.5,6.2-4.22,9.93-4.91,1.44-.26,2.25-2.12,.93-3.13-2.85-2.18-5.05-5.05-7.91-7.23-.16,1.01-.31,2.02-.47,3.03,2.26-1.02,4.16-2.32,6.7-2.64,2.26-.29,1.91-3.8-.34-3.51-2.85,.36-5.05,1.7-7.62,2.86-1.17,.53-1.59,2.17-.47,3.02,2.85,2.18,5.05,5.05,7.91,7.23,.31-1.04,.62-2.09,.93-3.13-4.17,.77-7.09,3.47-10.85,5.13-.94,.41-1.62,1.82-.79,2.69,2.4,2.51,5.34,3.46,8.48,4.77,2.1,.88,3.54-2.34,1.43-3.22h0Z"></path> <path class="cls-2" d="M376.48,1339.43c-1.63-4.25-8.22-1.72-6.59,2.53,1.63,4.25,8.22,1.72,6.59-2.53h0Z"></path> <path class="cls-3" d="M382.35,1393.5c.21-2.13,.42-4.27,.62-6.4,.19-1.92-.92-3.73-2.91-4.05-1.81-.3-3.87,1-4.05,2.91-.21,2.13-.42,4.26-.62,6.4-.19,1.92,.92,3.73,2.91,4.06,1.8,.29,3.87-1,4.05-2.91h0Z"></path> <path class="cls-3" d="M412.21,1084.73c-2.11,2.06-4.6,3.69-6.71,5.75-3.26,3.18,1.73,8.17,4.99,4.99,2.11-2.06,4.6-3.69,6.71-5.75,3.26-3.18-1.73-8.17-4.99-4.99h0Z"></path> <path class="cls-3" d="M143.37,1416.83c-2.11,2.06-4.6,3.69-6.71,5.75-3.26,3.18,1.73,8.17,4.99,4.99,2.11-2.06,4.6-3.69,6.71-5.75,3.26-3.18-1.73-8.17-4.99-4.99h0Z"></path> <path class="cls-2" d="M1148.73,38.58c4.55,0,4.55-7.06,0-7.06s-4.55,7.06,0,7.06h0Z"></path> <path class="cls-4" d="M1287.61,53.45c-1.54-2.4-3.38-5.25-2.7-8.23-.86,.35-1.73,.7-2.59,1.06,3.57,2.07,7.96,1.78,11.5,3.83,1.66,.97,3.08-.89,2.42-2.41-1.6-3.71-.88-7.93-2.88-11.5-.35,.86-.7,1.73-1.06,2.59,2.54-.66,4.24,.4,6.31,1.74,1.92,1.24,3.68-1.81,1.78-3.05-2.95-1.91-5.53-3.01-9.03-2.09-1.12,.29-1.6,1.61-1.05,2.59,1.91,3.43,1.3,7.85,2.88,11.5,.81-.8,1.61-1.61,2.41-2.41-3.57-2.07-7.97-1.78-11.5-3.83-.96-.56-2.34-.07-2.59,1.05-.92,4,.93,7.65,3.05,10.94,1.23,1.91,4.28,.14,3.05-1.78h0Z"></path> <path class="cls-2" d="M1231.44,9.93c4.55,0,4.55-7.06,0-7.06s-4.55,7.06,0,7.06h0Z"></path> <path class="cls-2" d="M1294.7,7.06c4.55,0,4.55-7.06,0-7.06s-4.55,7.06,0,7.06h0Z"></path> <path class="cls-3" d="M1389.25,142.81c3.39,2.55,6.79,5.09,9.83,8.07,3.25,3.19,8.24-1.8,4.99-4.99-3.46-3.4-7.39-6.28-11.26-9.18-1.54-1.16-3.94-.25-4.83,1.27-1.06,1.8-.27,3.68,1.27,4.83h0Z"></path> <path class="cls-3" d="M1224.36,83.67c2.11-2.06,4.6-3.69,6.71-5.75,3.26-3.18-1.73-8.17-4.99-4.99-2.11,2.06-4.6,3.69-6.71,5.75-3.26,3.18,1.73,8.17,4.99,4.99h0Z"></path> <path class="cls-4" d="M1491.83,56.65c-1.54-2.4-3.38-5.25-2.7-8.23-.86,.35-1.73,.7-2.59,1.06,3.57,2.07,7.96,1.78,11.5,3.83,1.66,.97,3.08-.89,2.42-2.41-1.6-3.71-.88-7.93-2.88-11.5-.35,.86-.7,1.73-1.06,2.59,2.54-.66,4.24,.4,6.31,1.74,1.92,1.24,3.68-1.81,1.78-3.05-2.95-1.91-5.53-3.01-9.03-2.09-1.12,.29-1.6,1.61-1.05,2.59,1.91,3.43,1.3,7.85,2.88,11.5,.81-.8,1.61-1.61,2.41-2.41-3.57-2.07-7.97-1.78-11.5-3.83-.96-.56-2.34-.07-2.59,1.05-.92,4,.93,7.65,3.05,10.94,1.23,1.91,4.28,.14,3.05-1.78h0Z"></path> <path class="cls-2" d="M1435.67,13.14c4.55,0,4.55-7.06,0-7.06s-4.55,7.06,0,7.06h0Z"></path> <path class="cls-2" d="M1498.93,10.26c4.55,0,4.55-7.06,0-7.06s-4.55,7.06,0,7.06h0Z"></path> <path class="cls-3" d="M1428.59,86.87c2.11-2.06,4.6-3.69,6.71-5.75,3.26-3.18-1.73-8.17-4.99-4.99-2.11,2.06-4.6,3.69-6.71,5.75-3.26,3.18,1.73,8.17,4.99,4.99h0Z"></path> <path class="cls-1" d="M1177.17,618.9c0,4.55,7.06,4.55,7.06,0s-7.06-4.55-7.06,0h0Z"></path> <path class="cls-1" d="M1227.99,157.3c0,4.55,7.06,4.55,7.06,0s-7.06-4.55-7.06,0h0Z"></path> <path class="cls-1" d="M1366.33,203.89c0,4.55,7.06,4.55,7.06,0s-7.06-4.55-7.06,0h0Z"></path> <path class="cls-1" d="M1370.56,415.63c0,4.55,7.06,4.55,7.06,0s-7.06-4.55-7.06,0h0Z"></path> <path class="cls-1" d="M1363.5,623.13c0,4.55,7.06,4.55,7.06,0s-7.06-4.55-7.06,0h0Z"></path> <path class="cls-2" d="M1133.41,116.37c0,4.55,7.06,4.55,7.06,0s-7.06-4.55-7.06,0h0Z"></path> <path class="cls-2" d="M1271.75,630.19c0,4.55,7.06,4.55,7.06,0s-7.06-4.55-7.06,0h0Z"></path> <path class="cls-2" d="M1380.44,562.43c0,4.55,7.06,4.55,7.06,0s-7.06-4.55-7.06,0h0Z"></path> <path class="cls-2" d="M1377.62,298.46c0,4.55,7.06,4.55,7.06,0s-7.06-4.55-7.06,0h0Z"></path> <path class="cls-2" d="M1308.45,226.47c0,4.55,7.06,4.55,7.06,0s-7.06-4.55-7.06,0h0Z"></path> <path class="cls-4" d="M1182.5,232.65c2.68-.89,5.31-1.73,8.16-1.85-.51-.89-1.02-1.77-1.52-2.66-1.2,2.68-1.61,6-3.56,8.27-.99,1.15-.37,2.98,1.25,3.01,4.35,.09,8.62,.81,12.93-.06-.66-.86-1.33-1.73-1.99-2.59-1.88,2.67-4.13,5-6.43,7.31-1.61,1.61,.89,4.11,2.5,2.5,2.52-2.52,4.93-5.1,6.98-8.03,.97-1.38-.62-2.87-1.99-2.59-3.96,.8-8,.02-11.99-.06,.42,1,.83,2.01,1.25,3.01,2.25-2.62,2.74-5.92,4.11-8.98,.51-1.14-.06-2.72-1.52-2.66-3.17,.14-6.09,.99-9.1,1.98-2.15,.71-1.23,4.12,.94,3.4h0Z"></path> <path class="cls-4" d="M1234.82,428c2.34,1.73,3.92,3.9,4.94,6.61,.57-.75,1.13-1.49,1.7-2.23-3.7,.21-7.3,1.68-11.03,1.02-1.48-.26-2.81,1.15-1.99,2.59,2.23,3.92,2.23,8.61,4.79,12.46,.35-.86,.7-1.73,1.05-2.59-4.06,.8-8.33-.03-12.06-1.74-2.05-.94-3.85,2.1-1.78,3.05,4.65,2.12,9.72,3.09,14.78,2.1,1.09-.21,1.66-1.69,1.06-2.59-2.54-3.82-2.55-8.53-4.79-12.46-.66,.86-1.33,1.73-1.99,2.59,4.17,.73,7.85-.66,11.97-.89,1.05-.06,2.13-1.1,1.7-2.24-1.37-3.64-3.43-6.41-6.56-8.72-1.84-1.35-3.59,1.71-1.78,3.05h0Z"></path> <path class="cls-4" d="M1173.34,545.89c2.4-1.54,5.25-3.38,8.23-2.7-.35-.86-.7-1.73-1.06-2.59-2.07,3.57-1.78,7.96-3.83,11.5-.97,1.66,.89,3.08,2.41,2.42,3.71-1.6,7.93-.88,11.5-2.88-.86-.35-1.73-.7-2.59-1.06,.66,2.54-.4,4.24-1.74,6.31-1.24,1.92,1.81,3.68,3.05,1.78,1.91-2.95,3.01-5.53,2.09-9.03-.29-1.12-1.61-1.6-2.59-1.05-3.43,1.91-7.85,1.3-11.5,2.88,.8,.81,1.61,1.61,2.41,2.41,2.07-3.57,1.78-7.97,3.83-11.5,.56-.96,.07-2.34-1.05-2.59-4-.92-7.65,.93-10.94,3.05-1.91,1.23-.14,4.28,1.78,3.05h0Z"></path> <path class="cls-2" d="M1232.19,291.33c0,4.55,7.06,4.55,7.06,0s-7.06-4.55-7.06,0h0Z"></path> <path class="cls-2" d="M1270.52,403.48c0,4.55,7.06,4.55,7.06,0s-7.06-4.55-7.06,0h0Z"></path> <path class="cls-2" d="M1170.83,466.74c0,4.55,7.06,4.55,7.06,0s-7.06-4.55-7.06,0h0Z"></path> <path class="cls-2" d="M1219.73,552.99c0,4.55,7.06,4.55,7.06,0s-7.06-4.55-7.06,0h0Z"></path> <path class="cls-1" d="M1074.01,771.3c0,4.55,7.06,4.55,7.06,0s-7.06-4.55-7.06,0h0Z"></path> <path class="cls-4" d="M1070.17,698.29c2.4-1.54,5.25-3.38,8.23-2.7-.35-.86-.7-1.73-1.06-2.59-2.07,3.57-1.78,7.96-3.83,11.5-.97,1.66,.89,3.08,2.41,2.42,3.71-1.6,7.93-.88,11.5-2.88-.86-.35-1.73-.7-2.59-1.06,.66,2.54-.4,4.24-1.74,6.31-1.24,1.92,1.81,3.68,3.05,1.78,1.91-2.95,3.01-5.53,2.09-9.03-.29-1.12-1.61-1.6-2.59-1.05-3.43,1.91-7.85,1.3-11.5,2.88,.8,.81,1.61,1.61,2.41,2.41,2.07-3.57,1.78-7.97,3.83-11.5,.56-.96,.07-2.34-1.05-2.59-4-.92-7.65,.93-10.94,3.05-1.91,1.23-.14,4.28,1.78,3.05h0Z"></path> <path class="cls-2" d="M1067.67,619.14c0,4.55,7.06,4.55,7.06,0s-7.06-4.55-7.06,0h0Z"></path> <path class="cls-2" d="M1113.68,642.13c0,4.55,7.06,4.55,7.06,0s-7.06-4.55-7.06,0h0Z"></path> <path class="cls-2" d="M1116.56,705.39c0,4.55,7.06,4.55,7.06,0s-7.06-4.55-7.06,0h0Z"></path> <path class="cls-2" d="M1277.53,522.94c0,4.55,7.06,4.55,7.06,0s-7.06-4.55-7.06,0h0Z"></path> <path class="cls-2" d="M1138.26,198.36c0,4.55,7.06,4.55,7.06,0s-7.06-4.55-7.06,0h0Z"></path> <path class="cls-3" d="M1246.09,238.75c-.96,1.92-1.92,3.83-2.88,5.75-.86,1.72-.47,3.81,1.26,4.83,1.58,.92,3.97,.45,4.83-1.27,.96-1.92,1.92-3.83,2.87-5.75,.86-1.72,.47-3.81-1.27-4.83-1.58-.92-3.97-.45-4.83,1.27h0Z"></path> <path class="cls-3" d="M1300.3,371.46c.96,.96,1.91,1.92,2.87,2.87,1.36,1.36,3.63,1.36,4.99,0,1.36-1.36,1.36-3.63,0-4.99-.96-.96-1.92-1.92-2.87-2.87-1.36-1.36-3.63-1.36-4.99,0-1.36,1.36-1.36,3.63,0,4.99h0Z"></path> <path class="cls-3" d="M1314.42,531.71c-2.55,3.39-5.09,6.79-8.07,9.83-3.19,3.25,1.8,8.24,4.99,4.99,3.4-3.46,6.28-7.39,9.18-11.26,1.16-1.54,.25-3.94-1.27-4.83-1.8-1.06-3.68-.27-4.83,1.27h0Z"></path> <path class="cls-2" d="M1580.91,964.92c-4.55,0-4.55,7.06,0,7.06s4.55-7.06,0-7.06h0Z"></path> <path class="cls-1" d="M1121.85,1103.13c-4.55,0-4.55,7.06,0,7.06s4.55-7.06,0-7.06h0Z"></path> <path class="cls-2" d="M1099.27,1045.25c-4.55,0-4.55,7.06,0,7.06s4.55-7.06,0-7.06h0Z"></path> <path class="cls-4" d="M1093.09,919.3c.89,2.68,1.73,5.31,1.85,8.16,.89-.51,1.77-1.02,2.66-1.52-2.68-1.2-6-1.61-8.27-3.56-1.15-.99-2.98-.37-3.01,1.25-.09,4.35-.81,8.62,.06,12.93,.86-.66,1.73-1.33,2.59-1.99-2.67-1.88-5-4.13-7.31-6.43-1.61-1.61-4.11,.89-2.5,2.5,2.52,2.52,5.1,4.93,8.03,6.98,1.38,.97,2.87-.62,2.59-1.99-.8-3.96-.02-8,.06-11.99-1,.42-2.01,.83-3.01,1.25,2.62,2.25,5.92,2.74,8.98,4.11,1.14,.51,2.72-.06,2.66-1.52-.14-3.17-.99-6.09-1.98-9.1-.71-2.15-4.12-1.23-3.4,.94h0Z"></path> <path class="cls-1" d="M1214.09,1301.46c-4.55,0-4.55,7.06,0,7.06s4.55-7.06,0-7.06h0Z"></path> <path class="cls-2" d="M1119.51,1312.76c-4.55,0-4.55,7.06,0,7.06s4.55-7.06,0-7.06h0Z"></path> <path class="cls-2" d="M1191.51,1243.59c-4.55,0-4.55,7.06,0,7.06s4.55-7.06,0-7.06h0Z"></path> <path class="cls-4" d="M1185.33,1117.64c.89,2.68,1.73,5.31,1.85,8.16,.89-.51,1.77-1.02,2.66-1.52-2.68-1.2-6-1.61-8.27-3.56-1.15-.99-2.98-.37-3.01,1.25-.09,4.35-.81,8.62,.06,12.93,.86-.66,1.73-1.33,2.59-1.99-2.67-1.88-5-4.13-7.31-6.43-1.61-1.61-4.11,.89-2.5,2.5,2.52,2.52,5.1,4.93,8.03,6.98,1.38,.97,2.87-.62,2.59-1.99-.8-3.96-.02-8,.06-11.99-1,.42-2.01,.83-3.01,1.25,2.62,2.25,5.92,2.74,8.98,4.11,1.14,.51,2.72-.06,2.66-1.52-.14-3.17-.99-6.09-1.98-9.1-.71-2.15-4.12-1.23-3.4,.94h0Z"></path> <path class="cls-4" d="M1108.14,1212.73c-1.82,1.9-3.43,4.25-5.93,5.3,.75,.57,1.49,1.13,2.23,1.7-.18-3.7-1.72-7.3-1.02-11.03,.27-1.44-1.18-2.87-2.59-1.99-3.06,1.88-6.53,2.91-9.58,4.79,.89,.51,1.77,1.02,2.66,1.52-.14-2.48-.67-4.72-.06-7.2,.54-2.21-2.86-3.15-3.4-.94-.68,2.79-.22,5.32-.06,8.14,.07,1.29,1.46,2.26,2.66,1.52,3.06-1.88,6.53-2.91,9.58-4.79-.86-.67-1.73-1.33-2.59-1.99-.78,4.17,.69,7.86,.9,11.97,.05,1.02,1.11,2.17,2.23,1.7,3.2-1.34,5.14-3.75,7.49-6.21,1.57-1.64-.92-4.14-2.5-2.5h0Z"></path> <path class="cls-2" d="M1126.65,1167.32c-4.55,0-4.55,7.06,0,7.06s4.55-7.06,0-7.06h0Z"></path> <path class="cls-2" d="M1219.62,1073.39c-4.55,0-4.55,7.06,0,7.06s4.55-7.06,0-7.06h0Z"></path> <path class="cls-3" d="M1179.23,969.89c-1.92-.96-3.83-1.92-5.75-2.88-1.72-.86-3.81-.47-4.83,1.26-.92,1.58-.45,3.97,1.27,4.83,1.92,.96,3.83,1.92,5.75,2.87,1.72,.86,3.81,.47,4.83-1.27,.92-1.58,.45-3.97-1.27-4.83h0Z"></path> <path class="cls-4" d="M1558.62,1195.72c1.54,2.4,3.38,5.25,2.7,8.23,.86-.35,1.73-.7,2.59-1.06-3.57-2.07-7.96-1.78-11.5-3.83-1.66-.97-3.08,.89-2.42,2.41,1.6,3.71,.88,7.93,2.88,11.5,.35-.86,.7-1.73,1.06-2.59-2.54,.66-4.24-.4-6.31-1.74-1.92-1.24-3.68,1.81-1.78,3.05,2.95,1.91,5.53,3.01,9.03,2.09,1.12-.29,1.6-1.61,1.05-2.59-1.91-3.43-1.3-7.85-2.88-11.5-.81,.8-1.61,1.61-2.41,2.41,3.57,2.07,7.97,1.78,11.5,3.83,.96,.56,2.34,.07,2.59-1.05,.92-4-.93-7.65-3.05-10.94-1.23-1.91-4.28-.14-3.05,1.78h0Z"></path> <path class="cls-2" d="M1417.54,703.48c-4.55,0-4.55,7.06,0,7.06s4.55-7.06,0-7.06h0Z"></path> <path class="cls-3" d="M1408.77,740.38c-3.39-2.55-6.79-5.09-9.83-8.07-3.25-3.19-8.24,1.8-4.99,4.99,3.46,3.4,7.39,6.28,11.26,9.18,1.54,1.16,3.94,.25,4.83-1.27,1.06-1.8,.27-3.68-1.27-4.83h0Z"></path> <path class="cls-2" d="M1496.34,1432.37c-4.55,0-4.55,7.06,0,7.06s4.55-7.06,0-7.06h0Z"></path> <path class="cls-4" d="M1357.46,1417.51c1.54,2.4,3.38,5.25,2.7,8.23,.86-.35,1.73-.7,2.59-1.06-3.57-2.07-7.96-1.78-11.5-3.83-1.66-.97-3.08,.89-2.42,2.41,1.6,3.71,.88,7.93,2.88,11.5,.35-.86,.7-1.73,1.06-2.59-2.54,.66-4.24-.4-6.31-1.74-1.92-1.24-3.68,1.81-1.78,3.05,2.95,1.91,5.53,3.01,9.03,2.09,1.12-.29,1.6-1.61,1.05-2.59-1.91-3.43-1.3-7.85-2.88-11.5-.81,.8-1.61,1.61-2.41,2.41,3.57,2.07,7.97,1.78,11.5,3.83,.96,.56,2.34,.07,2.59-1.05,.92-4-.93-7.65-3.05-10.94-1.23-1.91-4.28-.14-3.05,1.78h0Z"></path> <path class="cls-2" d="M1413.62,1461.02c-4.55,0-4.55,7.06,0,7.06s4.55-7.06,0-7.06h0Z"></path> <path class="cls-2" d="M1350.36,1463.9c-4.55,0-4.55,7.06,0,7.06s4.55-7.06,0-7.06h0Z"></path> <path class="cls-3" d="M1255.81,1328.15c-3.39-2.55-6.79-5.09-9.83-8.07-3.25-3.19-8.24,1.8-4.99,4.99,3.46,3.4,7.39,6.28,11.26,9.18,1.54,1.16,3.94,.25,4.83-1.27,1.06-1.8,.27-3.68-1.27-4.83h0Z"></path> <path class="cls-3" d="M1420.71,1387.29c-2.11,2.06-4.6,3.69-6.71,5.75-3.26,3.18,1.73,8.17,4.99,4.99,2.11-2.06,4.6-3.69,6.71-5.75,3.26-3.18-1.73-8.17-4.99-4.99h0Z"></path> <path class="cls-4" d="M1153.23,1414.3c1.54,2.4,3.38,5.25,2.7,8.23,.86-.35,1.73-.7,2.59-1.06-3.57-2.07-7.96-1.78-11.5-3.83-1.66-.97-3.08,.89-2.42,2.41,1.6,3.71,.88,7.93,2.88,11.5,.35-.86,.7-1.73,1.06-2.59-2.54,.66-4.24-.4-6.31-1.74-1.92-1.24-3.68,1.81-1.78,3.05,2.95,1.91,5.53,3.01,9.03,2.09,1.12-.29,1.6-1.61,1.05-2.59-1.91-3.43-1.3-7.85-2.88-11.5-.81,.8-1.61,1.61-2.41,2.41,3.57,2.07,7.97,1.78,11.5,3.83,.96,.56,2.34,.07,2.59-1.05,.92-4-.93-7.65-3.05-10.94-1.23-1.91-4.28-.14-3.05,1.78h0Z"></path> <path class="cls-2" d="M1209.39,1457.82c-4.55,0-4.55,7.06,0,7.06s4.55-7.06,0-7.06h0Z"></path> <path class="cls-2" d="M1146.14,1460.69c-4.55,0-4.55,7.06,0,7.06s4.55-7.06,0-7.06h0Z"></path> <path class="cls-3" d="M1216.48,1384.08c-2.11,2.06-4.6,3.69-6.71,5.75-3.26,3.18,1.73,8.17,4.99,4.99,2.11-2.06,4.6-3.69,6.71-5.75,3.26-3.18-1.73-8.17-4.99-4.99h0Z"></path> <path class="cls-1" d="M1467.89,852.06c0-4.55-7.06-4.55-7.06,0s7.06,4.55,7.06,0h0Z"></path> <path class="cls-1" d="M1417.08,1313.66c0-4.55-7.06-4.55-7.06,0s7.06,4.55,7.06,0h0Z"></path> <path class="cls-1" d="M1278.74,1267.07c0-4.55-7.06-4.55-7.06,0s7.06,4.55,7.06,0h0Z"></path> <path class="cls-1" d="M1274.5,1055.33c0-4.55-7.06-4.55-7.06,0s7.06,4.55,7.06,0h0Z"></path> <path class="cls-1" d="M1281.56,847.82c0-4.55-7.06-4.55-7.06,0s7.06,4.55,7.06,0h0Z"></path> <path class="cls-2" d="M1511.65,1354.59c0-4.55-7.06-4.55-7.06,0s7.06,4.55,7.06,0h0Z"></path> <path class="cls-2" d="M1373.32,840.76c0-4.55-7.06-4.55-7.06,0s7.06,4.55,7.06,0h0Z"></path> <path class="cls-2" d="M1264.62,908.52c0-4.55-7.06-4.55-7.06,0s7.06,4.55,7.06,0h0Z"></path> <path class="cls-2" d="M1267.44,1172.49c0-4.55-7.06-4.55-7.06,0s7.06,4.55,7.06,0h0Z"></path> <path class="cls-2" d="M1336.61,1244.49c0-4.55-7.06-4.55-7.06,0s7.06,4.55,7.06,0h0Z"></path> <path class="cls-4" d="M1462.56,1238.31c-2.68,.89-5.31,1.73-8.16,1.85,.51,.89,1.02,1.77,1.52,2.66,1.2-2.68,1.61-6,3.56-8.27,.99-1.15,.37-2.98-1.25-3.01-4.35-.09-8.62-.81-12.93,.06,.66,.86,1.33,1.73,1.99,2.59,1.88-2.67,4.13-5,6.43-7.31,1.61-1.61-.89-4.11-2.5-2.5-2.52,2.52-4.93,5.1-6.98,8.03-.97,1.38,.62,2.87,1.99,2.59,3.96-.8,8-.02,11.99,.06-.42-1-.83-2.01-1.25-3.01-2.25,2.62-2.74,5.92-4.11,8.98-.51,1.14,.06,2.72,1.52,2.66,3.17-.14,6.09-.99,9.1-1.98,2.15-.71,1.23-4.12-.94-3.4h0Z"></path> <path class="cls-4" d="M1410.25,1042.96c-2.34-1.73-3.92-3.9-4.94-6.61-.57,.75-1.13,1.49-1.7,2.23,3.7-.21,7.3-1.68,11.03-1.02,1.48,.26,2.81-1.15,1.99-2.59-2.23-3.92-2.23-8.61-4.79-12.46-.35,.86-.7,1.73-1.05,2.59,4.06-.8,8.33,.03,12.06,1.74,2.05,.94,3.85-2.1,1.78-3.05-4.65-2.12-9.72-3.09-14.78-2.1-1.09,.21-1.66,1.69-1.06,2.59,2.54,3.82,2.55,8.53,4.79,12.46,.66-.86,1.33-1.73,1.99-2.59-4.17-.73-7.85,.66-11.97,.89-1.05,.06-2.13,1.1-1.7,2.24,1.37,3.64,3.43,6.41,6.56,8.72,1.84,1.35,3.59-1.71,1.78-3.05h0Z"></path> <path class="cls-4" d="M1471.73,925.06c-2.4,1.54-5.25,3.38-8.23,2.7,.35,.86,.7,1.73,1.06,2.59,2.07-3.57,1.78-7.96,3.83-11.5,.97-1.66-.89-3.08-2.41-2.42-3.71,1.6-7.93,.88-11.5,2.88,.86,.35,1.73,.7,2.59,1.06-.66-2.54,.4-4.24,1.74-6.31,1.24-1.92-1.81-3.68-3.05-1.78-1.91,2.95-3.01,5.53-2.09,9.03,.29,1.12,1.61,1.6,2.59,1.05,3.43-1.91,7.85-1.3,11.5-2.88-.8-.81-1.61-1.61-2.41-2.41-2.07,3.57-1.78,7.97-3.83,11.5-.56,.96-.07,2.34,1.05,2.59,4,.92,7.65-.93,10.94-3.05,1.91-1.23,.14-4.28-1.78-3.05h0Z"></path> <path class="cls-2" d="M1412.88,1179.63c0-4.55-7.06-4.55-7.06,0s7.06,4.55,7.06,0h0Z"></path> <path class="cls-2" d="M1374.55,1067.48c0-4.55-7.06-4.55-7.06,0s7.06,4.55,7.06,0h0Z"></path> <path class="cls-2" d="M1474.23,1004.22c0-4.55-7.06-4.55-7.06,0s7.06,4.55,7.06,0h0Z"></path> <path class="cls-2" d="M1425.34,917.97c0-4.55-7.06-4.55-7.06,0s7.06,4.55,7.06,0h0Z"></path> <path class="cls-1" d="M1571.06,699.66c0-4.55-7.06-4.55-7.06,0s7.06,4.55,7.06,0h0Z"></path> <path class="cls-4" d="M1574.9,772.66c-2.4,1.54-5.25,3.38-8.23,2.7,.35,.86,.7,1.73,1.06,2.59,2.07-3.57,1.78-7.96,3.83-11.5,.97-1.66-.89-3.08-2.41-2.42-3.71,1.6-7.93,.88-11.5,2.88,.86,.35,1.73,.7,2.59,1.06-.66-2.54,.4-4.24,1.74-6.31,1.24-1.92-1.81-3.68-3.05-1.78-1.91,2.95-3.01,5.53-2.09,9.03,.29,1.12,1.61,1.6,2.59,1.05,3.43-1.91,7.85-1.3,11.5-2.88-.8-.81-1.61-1.61-2.41-2.41-2.07,3.57-1.78,7.97-3.83,11.5-.56,.96-.07,2.34,1.05,2.59,4,.92,7.65-.93,10.94-3.05,1.91-1.23,.14-4.28-1.78-3.05h0Z"></path> <path class="cls-2" d="M1577.4,851.82c0-4.55-7.06-4.55-7.06,0s7.06,4.55,7.06,0h0Z"></path> <path class="cls-2" d="M1531.38,828.83c0-4.55-7.06-4.55-7.06,0s7.06,4.55,7.06,0h0Z"></path> <path class="cls-2" d="M1528.51,765.57c0-4.55-7.06-4.55-7.06,0s7.06,4.55,7.06,0h0Z"></path> <path class="cls-2" d="M1367.54,948.02c0-4.55-7.06-4.55-7.06,0s7.06,4.55,7.06,0h0Z"></path> <path class="cls-2" d="M1506.81,1272.6c0-4.55-7.06-4.55-7.06,0s7.06,4.55,7.06,0h0Z"></path> <path class="cls-3" d="M1398.98,1232.21c.96-1.92,1.92-3.83,2.88-5.75,.86-1.72,.47-3.81-1.26-4.83-1.58-.92-3.97-.45-4.83,1.27-.96,1.92-1.92,3.83-2.87,5.75-.86,1.72-.47,3.81,1.27,4.83,1.58,.92,3.97,.45,4.83-1.27h0Z"></path> <path class="cls-3" d="M1344.76,1099.49c-.96-.96-1.91-1.92-2.87-2.87-1.36-1.36-3.63-1.36-4.99,0-1.36,1.36-1.36,3.63,0,4.99,.96,.96,1.92,1.92,2.87,2.87,1.36,1.36,3.63,1.36,4.99,0,1.36-1.36,1.36-3.63,0-4.99h0Z"></path> <path class="cls-3" d="M1330.64,939.25c2.55-3.39,5.09-6.79,8.07-9.83,3.19-3.25-1.8-8.24-4.99-4.99-3.4,3.46-6.28,7.39-9.18,11.26-1.16,1.54-.25,3.94,1.27,4.83,1.8,1.06,3.68,.27,4.83-1.27h0Z"></path> </g> </g> </svg> 